HIERARCHY
ROOT Hips
{
	OFFSET 0.00000 0.00000 0.00000
	CHANNELS 6 Xposition Yposition Zposition Zrotation Yrotation Xrotation 
	JOINT LHipJoint
	{
		OFFSET 0 0 0
		CHANNELS 3 Zrotation Yrotation Xrotation
		JOINT LeftHip
		{
			OFFSET 1.29432 -1.88279 0.59910
			CHANNELS 3 Zrotation Yrotation Xrotation
			JOINT LeftKnee
			{
				OFFSET 2.63039 -7.22694 0.00000
				CHANNELS 3 Zrotation Yrotation Xrotation
				JOINT LeftAnkle
				{
					OFFSET 2.70674 -7.43672 0.00000
					CHANNELS 3 Zrotation Yrotation Xrotation
					JOINT LeftToe
					{
						OFFSET 0.15066 -0.41394 2.09027
						CHANNELS 3 Zrotation Yrotation Xrotation
						End Site
						{
							OFFSET 0.00000 -0.00000 1.07518
						}
					}
				}
			}
		}
	}
	JOINT RHipJoint
	{
		OFFSET 0 0 0
		CHANNELS 3 Zrotation Yrotation Xrotation
		JOINT RightHip
		{
			OFFSET -1.37068 -1.88279 0.59910
			CHANNELS 3 Zrotation Yrotation Xrotation
			JOINT RightKnee
			{
				OFFSET -2.57023 -7.06166 0.00000
				CHANNELS 3 Zrotation Yrotation Xrotation
				JOINT RightAnkle
				{
					OFFSET -2.76461 -7.59570 0.00000
					CHANNELS 3 Zrotation Yrotation Xrotation
					JOINT RightToe
					{
						OFFSET -0.24175 -0.64785 2.19719
						CHANNELS 3 Zrotation Yrotation Xrotation
						End Site
						{
							OFFSET -0.00000 -0.00000 1.14803
						}
					}
				}
			}
		}
	}
	JOINT lowerback
	{
		OFFSET 0 0 0
		CHANNELS 3 Zrotation Yrotation Xrotation
		JOINT Chest
		{
			OFFSET -0.03138 2.03983 -0.23106
			CHANNELS 3 Zrotation Yrotation Xrotation
			JOINT Chest2
			{
				OFFSET -0.00325 2.06238 -0.06878
				CHANNELS 3 Zrotation Yrotation Xrotation
				JOINT lowerneck
				{
					OFFSET 0 0 0
					CHANNELS 3 Zrotation Yrotation Xrotation
					JOINT Neck
					{
						OFFSET -0.00002 1.75318 0.18090
						CHANNELS 3 Zrotation Yrotation Xrotation
						JOINT Head
						{
							OFFSET 0.08806 1.75856 -0.25387
							CHANNELS 3 Zrotation Yrotation Xrotation
							End Site
							{
								OFFSET 0.02554 1.78597 -0.10684
							}
						}
					}
				}
				JOINT LeftCollar
				{
					OFFSET 0 0 0
					CHANNELS 3 Zrotation Yrotation Xrotation
					JOINT LeftShoulder
					{
						OFFSET 3.09657 1.33597 -0.04414
CHANNELS 3 Zrotation Xrotation Yrotation
						JOINT LeftElbow
						{
OFFSET 0 -5.342980 -0.000000
CHANNELS 3 Zrotation Xrotation Yrotation
							JOINT LeftWrist
							{
OFFSET 0 -3.672620 -0.000000
CHANNELS 3 Zrotation Xrotation Yrotation
								JOINT lhand
								{
									OFFSET 0 0 0
CHANNELS 3 Zrotation Xrotation Yrotation
									JOINT LFingers
									{
OFFSET 0 -0.599300 -0.000000
CHANNELS 3 Zrotation Xrotation Yrotation
										End Site
										{
OFFSET 0 -0.483170 -0.000000
										}
									}
								}
								JOINT LThumb
								{
OFFSET 0 0.000000 0.000000
CHANNELS 3 Zrotation Xrotation Yrotation
									End Site
									{
OFFSET 0 -0.490550 0.490550
									}
								}
							}
						}
					}
				}
				JOINT RightCollar
				{
					OFFSET 0 0 0
					CHANNELS 3 Zrotation Yrotation Xrotation
					JOINT RightShoulder
					{
						OFFSET -3.16460 1.32273 -0.23382
CHANNELS 3 Zrotation Xrotation Yrotation
						JOINT RightElbow
						{
OFFSET 0 -5.549670 0.033480
CHANNELS 3 Zrotation Xrotation Yrotation
							JOINT RightWrist
							{
OFFSET 0 -3.694010 0.000000
CHANNELS 3 Zrotation Xrotation Yrotation
								JOINT rhand
								{
									OFFSET 0 0 0
CHANNELS 3 Zrotation Xrotation Yrotation
									JOINT RFingers
									{
OFFSET 0 -0.638110 0.000000
CHANNELS 3 Zrotation Xrotation Yrotation
										End Site
										{
OFFSET 0 -0.514460 0.000000
										}
									}
								}
								JOINT RThumb
								{
OFFSET 0 0.000000 0.000000
CHANNELS 3 Zrotation Xrotation Yrotation
									End Site
									{
OFFSET 0 -0.522320 0.522320
									}
								}
							}
						}
					}
				}
			}
		}
	}
}
MOTION
Frames: 5
Frame Time: .0083333
21.1815 18.4844 -0.5156 -0.3328 -11.0054 2.3333 0.0000 0.0000 0.0000 -13.1751 0.2988 -24.1487 10.2894 17.5694 60.4513 0.1625 -2.6455 -7.1597 0.1360 -2.3772 -6.5494 0.0000 0.0000 0.0000 26.8087 10.8163 -9.2884 -2.5286 -9.8898 28.6205 -0.6268 5.1398 -14.0975 -0.0691 1.6960 -4.6662 -2.1920 -2.8973 2.1857 -2.4574 -3.9128 1.1565 -1.2061 -1.9600 -0.0626 -15.8631 -20.3967 8.9635 27.2857 -29.3528 -4.0362 8.9770 -15.3153 3.9531 -0.0000 0.0000 0.0000 8.9381 9.411 -11.517 18.4248 -28.6977 4.7515 10.6174 22.786 -29.9203 0.0 0.0 0.0 -7.1250 0.0 0.0 -23.1826 58.7953 8.0922 -0.0000 0.0000 0.0000 -3.7952 -0.0982 23.1502 -26.5009 -37.699 -9.1922 -22.644 2.8133 -18.9314 0.0 0.0 0.0 7.1250 0.0 -0.0 3.6050 9.6252 2.9575
21.1685 18.4829 -0.3781 -0.7301 -11.2448 2.3037 0.0000 0.0000 0.0000 -12.6782 -0.2071 -24.8229 10.0341 17.4290 59.6023 0.2292 -2.6716 -8.5152 0.2031 -2.9020 -8.0060 0.0000 0.0000 0.0000 27.3044 10.5822 -8.5967 -2.4910 -9.8216 28.4008 -0.6389 5.2159 -14.2343 -0.0969 2.0073 -5.5258 -1.6857 -2.7585 2.2694 -2.4882 -3.7215 1.1630 -1.5181 -1.8626 -0.1362 -15.5384 -20.4004 8.4192 26.6366 -29.4681 -2.7757 8.6290 -15.2680 4.2694 -0.0000 -0.0000 0.0000 8.9158 9.7331 -10.8463 18.5746 -28.8867 4.8236 12.2182 23.5869 -28.716 0.0 0.0 0.0 -7.1250 0.0 0.0 -20.6561 58.037 6.7785 -0.0000 -0.0000 0.0000 -3.7293 -0.5993 23.4657 -27.3097 -38.4729 -9.6912 -22.4752 2.7613 -18.8611 0.0 0.0 0.0 7.1250 0.0 -0.0 3.7091 9.7245 3.0358
21.1568 18.4880 -0.2425 -0.8808 -11.4928 2.4043 0.0000 0.0000 0.0000 -12.5009 -0.7921 -25.5081 9.6540 17.2107 58.3257 0.2621 -2.5308 -9.1253 0.2142 -2.9796 -8.2221 0.0000 0.0000 0.0000 27.4480 10.3934 -8.3893 -2.5305 -9.8931 28.6312 -0.6753 5.6912 -14.6419 -0.0707 1.7158 -4.7208 -1.4735 -2.6522 2.2158 -2.4184 -3.5754 1.1081 -1.5689 -1.7889 -0.1691 -15.4269 -20.3684 7.7343 25.8931 -29.5127 -1.5711 8.2750 -15.1752 4.5958 0.0000 0.0000 0.0000 8.7165 9.8809 -10.5034 18.4329 -28.7079 4.7554 12.4811 23.678 -28.4075 0.0 0.0 0.0 -7.1250 0.0 0.0 -20.1729 57.8056 6.4976 0.0000 0.0000 0.0000 -4.0675 -1.0325 23.9942 -28.1864 -39.2873 -10.2415 -22.157 2.6992 -18.3661 0.0 0.0 0.0 7.1250 0.0 -0.0 3.8781 10.2943 3.13
21.1548 18.4733 -0.1071 -0.8205 -11.8978 2.4595 0.0000 0.0000 0.0000 -12.5769 -1.2336 -26.1127 9.2241 16.9498 56.8619 0.2861 -2.4477 -9.5527 0.1814 -2.7433 -7.5649 0.0000 0.0000 0.0000 27.2815 10.0482 -8.2009 -2.5504 -9.9289 28.7469 -0.7061 6.5927 -15.0115 -0.0348 1.2045 -3.3117 -1.4685 -2.5760 2.1630 -2.4026 -3.4749 1.0154 -1.5578 -1.7385 -0.2322 -15.2971 -20.2056 7.2975 25.3139 -29.3685 -0.5702 8.0445 -15.0244 4.8136 -0.0000 -0.0000 0.0000 8.4619 10.1561 -10.1219 18.2615 -28.4907 4.6733 12.6887 23.4496 -28.8885 0.0 0.0 0.0 -7.1250 0.0 0.0 -20.2930 58.3002 6.7826 -0.0000 -0.0000 0.0000 -4.4047 -1.4982 24.7034 -28.9331 -39.9611 -10.7177 -21.9775 2.2234 -18.5621 0.0 0.0 0.0 7.1250 0.0 -0.0 4.0100 10.1123 3.2518
21.1463 18.4709 0.0285 -0.9339 -12.4142 2.5169 0.0000 0.0000 0.0000 -12.4538 -1.5624 -26.5683 8.7057 16.6146 55.0667 0.3161 -2.0956 -10.1002 0.1953 -2.8462 -7.8507 0.0000 0.0000 0.0000 27.3672 10.0634 -7.7441 -2.5458 -9.9208 28.7206 -0.7163 7.0991 -15.1570 -0.0325 1.1630 -3.1973 -1.3785 -2.5160 2.2020 -2.4071 -3.3968 0.9354 -1.6099 -1.6992 -0.3401 -15.1167 -19.9372 7.0319 25.0412 -29.0943 0.2666 7.9486 -14.8367 4.9783 0.0000 0.0000 0.0000 8.4464 10.5574 -10.068 18.2202 -28.4382 4.6536 12.8004 22.6789 -29.3938 0.0 0.0 0.0 -7.1250 0.0 0.0 -20.5388 58.7964 7.1164 0.0000 0.0000 0.0000 -4.5526 -1.9973 25.6397 -29.6343 -40.5779 -11.171 -22.0983 1.3102 -19.0838 0.0 0.0 0.0 7.1250 0.0 -0.0 3.9714 9.5439 3.266
